<?xml version="1.0" encoding="utf-8"?>
<!-- Generator: Adobe Illustrator 16.0.0, SVG Export Plug-In . SVG Version: 6.00 Build 0)  -->
<!DOCTYPE svg PUBLIC "-//W3C//DTD SVG 1.1//EN" "http://www.w3.org/Graphics/SVG/1.1/DTD/svg11.dtd">
<svg version="1.1" id="Layer_1" xmlns="http://www.w3.org/2000/svg" xmlns:xlink="http://www.w3.org/1999/xlink" x="0px" y="0px"
	 width="64px" height="64px" viewBox="0 0 64 64" enable-background="new 0 0 64 64" xml:space="preserve">
<path d="M54.627,9.374C48.583,3.329,40.548,0,32,0S15.417,3.329,9.373,9.374C3.329,15.417,0,23.453,0,32
	c0,8.548,3.329,16.583,9.373,22.626C15.417,60.671,23.453,64,32,64c8.548,0,16.583-3.329,22.627-9.375
	c6.045-6.043,9.374-14.08,9.374-22.626S60.672,15.417,54.627,9.374z M31,47h-2v-4h2V47z M34.447,30.895
	C34.313,30.964,31,32.741,31,38v1h-2v-1c0-6.543,4.367-8.801,4.553-8.895C35.066,28.345,39,25.764,39,23c0-3.645-2.748-6-7-6
	c-6.205,0-7,2.138-7,4h-2c0-3.981,3.028-6,9-6c5.299,0,9,3.29,9,8C41,27.565,34.715,30.761,34.447,30.895z"/>
</svg>
