<?xml version="1.0" encoding="utf-8"?>
<!-- Generator: Adobe Illustrator 16.0.0, SVG Export Plug-In . SVG Version: 6.00 Build 0)  -->
<!DOCTYPE svg PUBLIC "-//W3C//DTD SVG 1.1//EN" "http://www.w3.org/Graphics/SVG/1.1/DTD/svg11.dtd">
<svg version="1.1" id="Layer_1" xmlns="http://www.w3.org/2000/svg" xmlns:xlink="http://www.w3.org/1999/xlink" x="0px" y="0px"
	 width="64px" height="64px" viewBox="0 0 64 64" enable-background="new 0 0 64 64" xml:space="preserve">
<g>
	<path d="M32,64c-8.547,0-16.583-3.329-22.627-9.374C3.329,48.583,0,40.548,0,32c0-8.547,3.329-16.583,9.373-22.626
		C15.417,3.329,23.452,0,32,0s16.583,3.329,22.627,9.374c6.045,6.043,9.374,14.079,9.374,22.625c0,8.546-3.329,16.583-9.374,22.626
		C48.583,60.671,40.548,64,32,64z M32,2c-8.013,0-15.546,3.121-21.212,8.788C5.121,16.454,2,23.988,2,32
		c0,8.013,3.121,15.545,8.787,21.211C16.453,58.879,23.987,62,32,62c8.014,0,15.547-3.121,21.213-8.788
		c5.667-5.666,8.788-13.2,8.788-21.212c0-8.013-3.121-15.546-8.788-21.211C47.546,5.121,40.013,2,32,2z"/>
</g>
<g>
	<rect x="29" y="43" width="2" height="4"/>
</g>
<g>
	<path d="M31,39h-2v-1c0-6.543,4.367-8.801,4.553-8.895C35.067,28.345,39,25.764,39,23c0-3.645-2.748-6-7-6c-6.205,0-7,2.138-7,4h-2
		c0-3.981,3.028-6,9-6c5.299,0,9,3.29,9,8c0,4.565-6.285,7.761-6.553,7.895C34.313,30.964,31,32.741,31,38V39z"/>
</g>
</svg>
