<?xml version="1.0" encoding="utf-8"?>
<!-- Generator: Adobe Illustrator 16.0.0, SVG Export Plug-In . SVG Version: 6.00 Build 0)  -->
<!DOCTYPE svg PUBLIC "-//W3C//DTD SVG 1.1//EN" "http://www.w3.org/Graphics/SVG/1.1/DTD/svg11.dtd">
<svg version="1.1" id="Layer_1" xmlns="http://www.w3.org/2000/svg" xmlns:xlink="http://www.w3.org/1999/xlink" x="0px" y="0px"
	 width="14.199px" height="13.854px" viewBox="0 0 14.199 13.854" enable-background="new 0 0 14.199 13.854" xml:space="preserve">
<g>
	<path d="M12.64,2.333c-0.463,0.277-0.979,0.478-1.527,0.585c-0.439-0.468-1.064-0.76-1.758-0.76c-1.33,0-2.407,1.078-2.407,2.407
		c0,0.189,0.021,0.373,0.062,0.55c-2.001-0.102-3.775-1.06-4.963-2.517C1.839,2.954,1.721,3.369,1.721,3.811
		c0,0.836,0.426,1.57,1.071,2.003c-0.394-0.012-0.767-0.121-1.09-0.3c0,0.01,0,0.02,0,0.028c0,1.167,0.83,2.141,1.933,2.361
		C3.432,7.958,3.219,7.99,3,7.99c-0.154,0-0.307-0.017-0.453-0.044c0.307,0.957,1.196,1.652,2.249,1.671
		c-0.825,0.646-1.86,1.032-2.991,1.032c-0.193,0-0.386-0.012-0.574-0.034c1.066,0.684,2.334,1.082,3.691,1.082
		c4.431,0,6.851-3.668,6.851-6.851c0-0.104-0.002-0.209-0.006-0.312c0.469-0.339,0.877-0.764,1.201-1.247
		c-0.432,0.191-0.895,0.322-1.383,0.379C12.082,3.368,12.46,2.897,12.64,2.333z"/>
</g>
</svg>
