<?xml version="1.0" encoding="utf-8"?>
<!-- Generator: Adobe Illustrator 16.0.0, SVG Export Plug-In . SVG Version: 6.00 Build 0)  -->
<!DOCTYPE svg PUBLIC "-//W3C//DTD SVG 1.1//EN" "http://www.w3.org/Graphics/SVG/1.1/DTD/svg11.dtd">
<svg version="1.1" id="Layer_1" xmlns="http://www.w3.org/2000/svg" xmlns:xlink="http://www.w3.org/1999/xlink" x="0px" y="0px"
	 width="14.199px" height="13.854px" viewBox="0 0 14.199 13.854" enable-background="new 0 0 14.199 13.854" xml:space="preserve">
<path d="M8.101,9.82c-0.806,0-1.563-0.435-1.822-0.93c0,0-0.434,1.719-0.524,2.05c-0.323,1.172-1.272,2.346-1.347,2.441
	c-0.051,0.065-0.166,0.046-0.178-0.043c-0.021-0.149-0.264-1.628,0.021-2.834c0.145-0.605,0.96-4.065,0.96-4.065
	s-0.237-0.476-0.237-1.18c0-1.105,0.641-1.932,1.438-1.932c0.679,0,1.005,0.511,1.005,1.12c0,0.683-0.434,1.701-0.658,2.646
	C6.573,7.886,7.156,8.531,7.937,8.531c1.412,0,2.365-1.813,2.365-3.967c0-1.635-1.101-2.857-3.104-2.857
	c-2.263,0-3.671,1.688-3.671,3.572c0,0.649,0.191,1.108,0.492,1.462c0.138,0.163,0.156,0.229,0.106,0.417
	C4.089,7.296,4.007,7.627,3.974,7.757C3.923,7.946,3.771,8.014,3.599,7.944C2.558,7.52,2.073,6.378,2.073,5.094
	c0-2.118,1.786-4.659,5.331-4.659c2.848,0,4.722,2.061,4.722,4.272C12.125,7.634,10.499,9.82,8.101,9.82z"/>
</svg>
