<?xml version="1.0" encoding="utf-8"?>
<!-- Generator: Adobe Illustrator 16.0.0, SVG Export Plug-In . SVG Version: 6.00 Build 0)  -->
<!DOCTYPE svg PUBLIC "-//W3C//DTD SVG 1.1//EN" "http://www.w3.org/Graphics/SVG/1.1/DTD/svg11.dtd">
<svg version="1.1" id="Layer_1" xmlns="http://www.w3.org/2000/svg" xmlns:xlink="http://www.w3.org/1999/xlink" x="0px" y="0px"
	 width="14.199px" height="13.854px" viewBox="0 0 14.199 13.854" enable-background="new 0 0 14.199 13.854" xml:space="preserve">
<g>
	<path stroke="#FFFFFF" stroke-width="0.25" stroke-miterlimit="10" d="M10.893,0.741H3.305c-1.318,0-2.392,1.072-2.392,2.391v2.524
		v5.065c0,1.318,1.073,2.391,2.392,2.391h7.588c1.317,0,2.392-1.072,2.392-2.391V5.656V3.132C13.285,1.814,12.21,0.741,10.893,0.741
		z M11.58,2.166l0.271-0.001V2.44v1.823L9.762,4.269L9.755,2.174L11.58,2.166z M5.333,5.656c0.396-0.548,1.039-0.908,1.766-0.908
		s1.369,0.36,1.765,0.908c0.259,0.359,0.412,0.796,0.412,1.271c0,1.2-0.978,2.176-2.178,2.176c-1.201,0-2.177-0.978-2.177-2.176
		C4.921,6.452,5.076,6.016,5.333,5.656z M12.08,10.722c0,0.653-0.533,1.186-1.188,1.186H3.304c-0.654,0-1.186-0.53-1.186-1.186
		V5.656h1.844C3.804,6.05,3.714,6.478,3.714,6.927c0,1.865,1.518,3.382,3.383,3.382s3.382-1.518,3.382-3.382
		c0-0.448-0.09-0.876-0.249-1.271h1.848L12.08,10.722L12.08,10.722z"/>
</g>
</svg>
