<?xml version="1.0" encoding="utf-8"?>
<!-- Generator: Adobe Illustrator 16.0.0, SVG Export Plug-In . SVG Version: 6.00 Build 0)  -->
<!DOCTYPE svg PUBLIC "-//W3C//DTD SVG 1.1//EN" "http://www.w3.org/Graphics/SVG/1.1/DTD/svg11.dtd">
<svg version="1.1" id="Layer_1" xmlns="http://www.w3.org/2000/svg" xmlns:xlink="http://www.w3.org/1999/xlink" x="0px" y="0px"
	 width="12.122px" height="12.121px" viewBox="0 0 12.122 12.121" enable-background="new 0 0 12.122 12.121" xml:space="preserve">
<path d="M12.122,2.266C12.122,1.017,11.104,0,9.854,0H2.267C1.017,0,0,1.017,0,2.266v7.589c0,1.25,1.017,2.266,2.267,2.266h7.587
	c1.25,0,2.268-1.016,2.268-2.266V2.266z M10.94,1.173v2.348L8.6,3.528L8.592,1.183L10.94,1.173z M4.194,4.718
	c0.434-0.602,1.132-0.961,1.867-0.961c0.734,0,1.433,0.359,1.865,0.961c0.285,0.394,0.438,0.857,0.438,1.344
	C8.362,7.33,7.329,8.363,6.06,8.363c-1.269,0-2.302-1.033-2.302-2.302C3.758,5.582,3.908,5.117,4.194,4.718z M9.854,11.167H2.266
	c-0.723,0-1.311-0.588-1.311-1.313V4.666h2.153L3.04,4.837C2.881,5.233,2.801,5.644,2.801,6.061c0,1.796,1.462,3.257,3.259,3.257
	c1.796,0,3.257-1.461,3.257-3.257c0-0.417-0.08-0.829-0.24-1.224L9.008,4.666h2.156l0.002,5.189
	C11.167,10.58,10.579,11.167,9.854,11.167z"/>
</svg>
