<?xml version="1.0" encoding="utf-8"?>
<!-- Generator: Adobe Illustrator 16.0.0, SVG Export Plug-In . SVG Version: 6.00 Build 0)  -->
<!DOCTYPE svg PUBLIC "-//W3C//DTD SVG 1.1//EN" "http://www.w3.org/Graphics/SVG/1.1/DTD/svg11.dtd">
<svg version="1.1" id="Layer_1" xmlns="http://www.w3.org/2000/svg" xmlns:xlink="http://www.w3.org/1999/xlink" x="0px" y="0px"
	 width="359.847px" height="113.744px" viewBox="0 0 359.847 113.744" enable-background="new 0 0 359.847 113.744"
	 xml:space="preserve">
<path fill="#DF9E26" d="M332.676,75.85c2.06-1.228,3.726-2.83,4.998-4.803c1.271-1.976,2.171-4.278,2.699-6.909
	c0.524-2.632,0.788-5.305,0.788-8.025c0-2.719-0.286-5.395-0.855-8.026c-0.572-2.633-1.511-4.979-2.827-7.041
	c-1.315-2.061-3.006-3.727-5.068-4.998c-2.061-1.272-4.584-1.908-7.563-1.908c-3.072,0-5.637,0.636-7.697,1.908
	c-2.062,1.271-3.731,2.915-5.002,4.934c-1.271,2.02-2.171,4.342-2.695,6.975c-0.528,2.632-0.79,5.351-0.79,8.157
	c0,2.721,0.282,5.394,0.854,8.025c0.568,2.631,1.491,4.934,2.763,6.909c1.272,1.973,2.962,3.575,5.065,4.803
	c2.107,1.228,4.651,1.841,7.633,1.841C328.048,77.69,330.613,77.077,332.676,75.85 M308.398,21.9v8.684h0.264
	c2.28-3.683,5.176-6.358,8.683-8.025c3.507-1.666,7.371-2.5,11.581-2.5c5.349,0,9.953,1.009,13.814,3.026
	c3.859,2.019,7.061,4.695,9.604,8.027c2.545,3.334,4.43,7.215,5.658,11.642c1.228,4.432,1.844,9.06,1.844,13.884
	c0,4.562-0.616,8.946-1.844,13.156c-1.229,4.211-3.09,7.942-5.591,11.185c-2.5,3.247-5.616,5.835-9.344,7.764
	c-3.729,1.93-8.091,2.896-13.092,2.896c-4.211,0-8.092-0.855-11.646-2.565c-3.552-1.71-6.47-4.23-8.747-7.565h-0.264v32.236h-18.686
	V21.9H308.398z"/>
<path fill="#DF9E26" d="M43.937,40.591c0-2.016-0.33-3.618-0.986-4.803c-0.66-1.184-1.538-2.107-2.632-2.763
	c-1.1-0.657-2.37-1.097-3.817-1.316c-1.447-0.219-3.005-0.33-4.671-0.33c-3.683,0-6.577,0.791-8.684,2.37
	c-2.104,1.578-3.335,4.21-3.685,7.895H0.778c0.263-4.385,1.36-8.027,3.289-10.921c1.929-2.895,4.385-5.217,7.371-6.974
	c2.979-1.754,6.334-3.005,10.063-3.749c3.729-0.745,7.479-1.121,11.252-1.121c3.419,0,6.886,0.245,10.393,0.724
	c3.507,0.484,6.711,1.427,9.606,2.83c2.894,1.404,5.264,3.356,7.105,5.856c1.841,2.501,2.763,5.813,2.763,9.933V73.62
	c0,3.069,0.175,6.008,0.528,8.815c0.35,2.807,0.963,4.913,1.842,6.317H46.041c-0.35-1.053-0.636-2.127-0.855-3.224
	c-0.219-1.097-0.374-2.215-0.458-3.356"/>
<path fill="#DF9E26" d="M258.938,41.304c0-2.016-0.33-3.617-0.986-4.803c-0.66-1.184-1.539-2.106-2.633-2.763
	c-1.1-0.657-2.369-1.097-3.816-1.316c-1.447-0.219-3.005-0.33-4.671-0.33c-3.683,0-6.577,0.791-8.685,2.37
	c-2.104,1.578-3.334,4.21-3.685,7.896h-18.685c0.264-4.386,1.36-8.027,3.289-10.921c1.93-2.895,4.385-5.217,7.371-6.974
	c2.979-1.754,6.334-3.005,10.063-3.749c3.729-0.744,7.479-1.121,11.252-1.121c3.419,0,6.886,0.245,10.394,0.724
	c3.506,0.484,6.711,1.427,9.605,2.83c2.895,1.404,5.264,3.356,7.105,5.856c1.84,2.501,2.762,5.813,2.762,9.934v35.396
	c0,3.069,0.176,6.008,0.529,8.815c0.35,2.807,0.963,4.913,1.842,6.313h-18.949c-0.35-1.05-0.637-2.124-0.855-3.221
	s-0.373-2.215-0.457-3.356"/>
<path fill="#DF9E26" d="M93.161,20.723v12.632h0.263c0.878-2.104,2.061-4.056,3.555-5.857c1.49-1.794,3.199-3.332,5.132-4.604
	c1.926-1.269,3.989-2.258,6.183-2.959c2.191-0.703,4.474-1.053,6.842-1.053c1.227,0,2.587,0.219,4.08,0.657v17.37
	c-0.878-0.175-1.932-0.33-3.159-0.461c-1.229-0.132-2.413-0.199-3.552-0.199c-3.42,0-6.317,0.572-8.684,1.71
	c-2.369,1.141-4.278,2.699-5.725,4.672c-1.447,1.975-2.48,4.277-3.094,6.909c-0.612,2.632-0.919,5.483-0.919,8.552V88.75H75.397
	V20.723H93.161z"/>
<path fill="#DF9E26" d="M129.295,20.723V0.327h18.683v20.396h13.686v12.5h-13.686v33.684c0,3.158,0.528,5.264,1.582,6.318
	c1.05,1.05,3.157,1.578,6.314,1.578c1.053,0,2.06-0.043,3.025-0.131c0.967-0.087,1.886-0.219,2.764-0.397V88.75
	c-1.579,0.263-3.335,0.438-5.265,0.525c-1.928,0.088-3.812,0.131-5.654,0.131c-2.897,0-5.641-0.195-8.226-0.592
	c-2.588-0.394-4.867-1.161-6.843-2.302c-1.972-1.138-3.53-2.763-4.671-4.867c-1.141-2.107-1.71-4.87-1.71-8.29V33.223"/>
<path fill="#DF9E26" d="M175.791,20.396V0h18.684v20.396h13.685v12.5h-13.685V66.58c0,3.158,0.527,5.264,1.578,6.318
	c1.054,1.05,3.158,1.578,6.318,1.578c1.053,0,2.059-0.043,3.025-0.131c0.966-0.088,1.885-0.22,2.763-0.397v14.476
	c-1.579,0.264-3.335,0.438-5.264,0.525c-1.929,0.088-3.815,0.131-5.658,0.131c-2.894,0-5.637-0.195-8.222-0.592
	c-2.588-0.395-4.867-1.161-6.844-2.302c-1.975-1.139-3.529-2.764-4.67-4.867c-1.142-2.107-1.711-4.87-1.711-8.29V32.896"/>
<path fill="#DF9E26" d="M18.03,55.183C8.071,55.183,0,63.047,0,72.749s8.071,17.566,18.03,17.566s18.03-7.864,18.03-17.566V56.266
	c0,0,0-1.083-1.083-1.083H18.03z"/>
<path fill="#DF9E26" d="M18.03,55.183C8.071,55.183,0,63.047,0,72.749s8.071,17.566,18.03,17.566s18.03-7.864,18.03-17.566V56.266
	c0,0,0-1.083-1.083-1.083H18.03z"/>
<path fill="#DF9E26" d="M233.03,55.896c-9.959,0-18.03,7.864-18.03,17.566c0,9.701,8.071,17.565,18.03,17.565
	s18.03-7.864,18.03-17.565V56.979c0,0,0-1.083-1.084-1.083H233.03z"/>
<path fill="#DF9E26" d="M233.03,55.896c-9.959,0-18.03,7.864-18.03,17.566c0,9.701,8.071,17.565,18.03,17.565
	s18.03-7.864,18.03-17.565V56.979c0,0,0-1.083-1.084-1.083H233.03z"/>
</svg>
