<?xml version="1.0" encoding="utf-8"?>
<!-- Generator: Adobe Illustrator 16.0.0, SVG Export Plug-In . SVG Version: 6.00 Build 0)  -->
<!DOCTYPE svg PUBLIC "-//W3C//DTD SVG 1.1//EN" "http://www.w3.org/Graphics/SVG/1.1/DTD/svg11.dtd">
<svg version="1.1" id="Layer_1" xmlns="http://www.w3.org/2000/svg" xmlns:xlink="http://www.w3.org/1999/xlink" x="0px" y="0px"
	 width="67px" height="66.29px" viewBox="0 0 67 66.29" enable-background="new 0 0 67 66.29" xml:space="preserve">
<g>
	<path fill="#E09D00" d="M52.328,53.541c0.688-0.409,1.242-0.943,1.667-1.601c0.425-0.66,0.724-1.428,0.9-2.306
		c0.175-0.878,0.263-1.77,0.263-2.677c0-0.906-0.096-1.799-0.285-2.677c-0.191-0.878-0.504-1.661-0.943-2.349
		c-0.438-0.688-1.002-1.242-1.689-1.667s-1.529-0.637-2.523-0.637c-1.024,0-1.879,0.212-2.567,0.637
		c-0.688,0.425-1.245,0.973-1.669,1.646c-0.424,0.674-0.724,1.449-0.898,2.326c-0.176,0.879-0.264,1.785-0.264,2.721
		c0,0.908,0.095,1.799,0.285,2.678c0.189,0.877,0.498,1.645,0.922,2.305c0.424,0.657,0.987,1.191,1.689,1.602
		c0.703,0.408,1.551,0.613,2.545,0.613C50.784,54.155,51.641,53.95,52.328,53.541 M44.23,35.547v2.896h0.088
		c0.76-1.229,1.727-2.121,2.896-2.678c1.17-0.555,2.458-0.834,3.862-0.834c1.784,0,3.319,0.338,4.607,1.01
		c1.287,0.674,2.354,1.566,3.204,2.678c0.848,1.111,1.477,2.406,1.887,3.883c0.409,1.479,0.615,3.021,0.615,4.631
		c0,1.521-0.206,2.983-0.615,4.389c-0.41,1.404-1.03,2.648-1.865,3.73c-0.834,1.082-1.873,1.945-3.116,2.589
		s-2.698,0.966-4.366,0.966c-1.404,0-2.699-0.285-3.885-0.855c-1.185-0.57-2.158-1.412-2.918-2.523h-0.087V66.18h-6.232V35.547
		H44.23z"/>
	<path fill="#E09D00" d="M27.733,13.43c0-0.672-0.11-1.207-0.329-1.602c-0.22-0.395-0.513-0.703-0.877-0.921
		c-0.367-0.219-0.791-0.366-1.273-0.439c-0.482-0.073-1.002-0.11-1.558-0.11c-1.229,0-2.194,0.264-2.896,0.791
		c-0.702,0.526-1.112,1.404-1.229,2.633h-6.232c0.088-1.462,0.454-2.677,1.097-3.643c0.643-0.966,1.462-1.74,2.458-2.326
		c0.994-0.585,2.113-1.002,3.356-1.25c1.244-0.249,2.495-0.375,3.753-0.375c1.14,0,2.296,0.082,3.466,0.242
		c1.17,0.162,2.238,0.476,3.205,0.944c0.965,0.468,1.755,1.12,2.369,1.953c0.614,0.834,0.921,1.939,0.921,3.313v11.806
		c0,1.024,0.059,2.004,0.176,2.94c0.117,0.936,0.322,1.639,0.614,2.107h-6.32c-0.116-0.351-0.212-0.709-0.285-1.075
		c-0.073-0.366-0.125-0.739-0.153-1.12"/>
	<path fill="#E09D00" d="M27.733,42.018c0-0.672-0.11-1.206-0.329-1.602c-0.22-0.395-0.513-0.703-0.877-0.922
		c-0.367-0.219-0.791-0.365-1.273-0.438c-0.482-0.073-1.002-0.11-1.558-0.11c-1.229,0-2.194,0.264-2.896,0.791
		c-0.702,0.525-1.112,1.404-1.229,2.633h-6.232c0.088-1.463,0.454-2.677,1.097-3.643c0.643-0.965,1.462-1.74,2.458-2.326
		c0.994-0.584,2.113-1.002,3.356-1.25s2.495-0.373,3.753-0.373c1.14,0,2.296,0.081,3.466,0.24c1.17,0.162,2.238,0.477,3.205,0.944
		c0.965,0.469,1.755,1.12,2.369,1.954s0.921,1.938,0.921,3.312v11.807c0,1.023,0.059,2.004,0.176,2.939
		c0.117,0.937,0.322,1.639,0.614,2.105h-6.32c-0.116-0.35-0.212-0.707-0.285-1.073c-0.073-0.366-0.125-0.739-0.153-1.12"/>
	<path fill="#E09D00" d="M44.151,6.803v4.213h0.087c0.293-0.702,0.688-1.353,1.187-1.954c0.497-0.598,1.067-1.111,1.712-1.536
		c0.642-0.423,1.33-0.753,2.062-0.987c0.73-0.234,1.492-0.352,2.282-0.352c0.409,0,0.863,0.073,1.361,0.22v5.793
		c-0.293-0.059-0.645-0.11-1.054-0.154c-0.41-0.044-0.806-0.066-1.185-0.066c-1.141,0-2.107,0.19-2.896,0.57
		c-0.791,0.38-1.428,0.9-1.91,1.558c-0.482,0.659-0.826,1.427-1.031,2.305s-0.307,1.829-0.307,2.853v10.226h-6.232V6.803H44.151z"/>
	<path fill="#E09D00" d="M56.203,10.972v13.386c0,1.141,0.189,2.062,0.57,2.765c0.381,0.702,0.9,1.244,1.559,1.624
		c0.658,0.38,1.419,0.636,2.282,0.768c0.862,0.132,1.776,0.198,2.743,0.198c0.614,0,1.243-0.015,1.886-0.044
		c0.644-0.029,1.229-0.087,1.756-0.175v-4.828c-0.293,0.059-0.599,0.103-0.921,0.132s-0.658,0.044-1.01,0.044
		c-1.053,0-1.756-0.176-2.106-0.526c-0.352-0.352-0.527-1.054-0.527-2.107V10.972h4.564V6.803h-4.564V0h-6.231v6.803V10.972
		L56.203,10.972z"/>
	<path fill="#E09D00" d="M0,39.214V52.6c0,1.141,0.19,2.062,0.57,2.766c0.381,0.701,0.899,1.243,1.558,1.623
		c0.659,0.381,1.419,0.637,2.283,0.768c0.862,0.133,1.777,0.197,2.742,0.197c0.615,0,1.244-0.014,1.888-0.043
		c0.643-0.029,1.229-0.088,1.755-0.176v-4.828c-0.293,0.059-0.6,0.104-0.921,0.133c-0.323,0.029-0.658,0.043-1.009,0.043
		c-1.054,0-1.756-0.176-2.107-0.525c-0.351-0.353-0.527-1.055-0.527-2.107V39.214h4.564v-4.169H6.232v-6.803H0v6.803V39.214z"/>
	<path fill="#E09D00" d="M19.092,18.297c-3.322,0-6.014,2.623-6.014,5.859c0,3.236,2.692,5.859,6.014,5.859
		c3.322,0,6.014-2.623,6.014-5.859v-5.498c0,0,0-0.361-0.361-0.361H19.092z"/>
	<path fill="#E09D00" d="M19.092,18.297c-3.322,0-6.014,2.623-6.014,5.859c0,3.236,2.692,5.859,6.014,5.859
		c3.322,0,6.014-2.623,6.014-5.859v-5.498c0,0,0-0.361-0.361-0.361H19.092z"/>
	<path fill="#E09D00" d="M19.092,46.885c-3.322,0-6.014,2.623-6.014,5.859s2.692,5.859,6.014,5.859c3.322,0,6.014-2.623,6.014-5.859
		v-5.498c0,0,0-0.361-0.361-0.361H19.092z"/>
	<path fill="#E09D00" d="M19.092,46.885c-3.322,0-6.014,2.623-6.014,5.859s2.692,5.859,6.014,5.859c3.322,0,6.014-2.623,6.014-5.859
		v-5.498c0,0,0-0.361-0.361-0.361H19.092z"/>
</g>
</svg>
