<?xml version="1.0" encoding="utf-8"?>
<!-- Generator: Adobe Illustrator 16.0.0, SVG Export Plug-In . SVG Version: 6.00 Build 0)  -->
<!DOCTYPE svg PUBLIC "-//W3C//DTD SVG 1.1//EN" "http://www.w3.org/Graphics/SVG/1.1/DTD/svg11.dtd">
<svg version="1.1" id="Layer_1" xmlns="http://www.w3.org/2000/svg" xmlns:xlink="http://www.w3.org/1999/xlink" x="0px" y="0px"
	 width="13.719px" height="8.922px" viewBox="0 0 13.719 8.922" enable-background="new 0 0 13.719 8.922" xml:space="preserve">
<path d="M13.723,0.477l-0.004-0.25h-0.066l-0.094-0.112l-0.033-0.01c-0.03-0.021-0.06-0.033-0.08-0.042
	c-0.021-0.013-0.056-0.034-0.104-0.049L0.483-0.008L0.399-0.005L0.374,0.012C0.33,0.025,0.295,0.045,0.268,0.06
	C0.246,0.069,0.211,0.083,0.173,0.11L0.102,0.175C0.099,0.179,0.096,0.183,0.093,0.187L0.088,0.193
	C0.044,0.256,0.045,0.307,0.045,0.306l-0.048,0.104v8.035c0,0.088,0.031,0.136,0.036,0.13l0.027,0.13l0.06,0.06l0.058,0.05
	C0.265,8.889,0.372,8.93,0.484,8.93h12.748c0.112,0,0.221-0.041,0.307-0.113l0.073-0.065c0.068-0.08,0.064-0.139,0.056-0.126
	l0.056-0.108V0.477z M11.803,0.963L6.858,4.804L5.921,4.076L5.873,4.042L1.906,0.963H11.803z M0.969,1.472l3.857,2.99L0.969,7.453
	V1.472z M1.908,7.955l3.713-2.878l0.921,0.709C6.61,5.85,6.684,5.862,6.679,5.854c0.024,0.014,0.08,0.044,0.162,0.044l0.062,0.001
	C6.96,5.894,7.001,5.872,7,5.871C7.035,5.863,7.105,5.848,7.161,5.8l0.937-0.725l3.711,2.88H1.908z M12.745,7.451L8.89,4.46
	l3.855-2.99V7.451z"/>
</svg>
