<?xml version="1.0" encoding="utf-8"?>
<!-- Generator: Adobe Illustrator 16.0.0, SVG Export Plug-In . SVG Version: 6.00 Build 0)  -->
<!DOCTYPE svg PUBLIC "-//W3C//DTD SVG 1.1//EN" "http://www.w3.org/Graphics/SVG/1.1/DTD/svg11.dtd">
<svg version="1.1" id="Layer_1" xmlns="http://www.w3.org/2000/svg" xmlns:xlink="http://www.w3.org/1999/xlink" x="0px" y="0px"
	 width="10.079px" height="12.984px" viewBox="0 0 10.079 12.984" enable-background="new 0 0 10.079 12.984" xml:space="preserve">
<path d="M6.055,9.385c-0.807,0-1.563-0.435-1.823-0.93c0,0-0.434,1.719-0.524,2.05c-0.323,1.172-1.272,2.347-1.347,2.441
	c-0.051,0.064-0.166,0.046-0.178-0.043c-0.021-0.149-0.264-1.628,0.021-2.834c0.145-0.605,0.96-4.065,0.96-4.065
	s-0.237-0.476-0.237-1.18c0-1.105,0.641-1.932,1.438-1.932c0.679,0,1.005,0.511,1.005,1.12c0,0.683-0.434,1.7-0.658,2.646
	C4.526,7.451,5.109,8.097,5.891,8.097c1.412,0,2.364-1.813,2.364-3.968c0-1.635-1.101-2.856-3.104-2.856
	c-2.263,0-3.671,1.688-3.671,3.571c0,0.649,0.191,1.108,0.492,1.463C2.11,6.469,2.128,6.535,2.078,6.724
	C2.042,6.862,1.96,7.193,1.927,7.323C1.876,7.511,1.724,7.579,1.552,7.509c-1.041-0.424-1.526-1.565-1.526-2.85
	C0.026,2.541,1.812,0,5.357,0c2.848,0,4.722,2.062,4.722,4.272C10.078,7.199,8.452,9.385,6.055,9.385z"/>
</svg>
