<?xml version="1.0" encoding="utf-8"?>
<!-- Generator: Adobe Illustrator 16.0.0, SVG Export Plug-In . SVG Version: 6.00 Build 0)  -->
<!DOCTYPE svg PUBLIC "-//W3C//DTD SVG 1.1//EN" "http://www.w3.org/Graphics/SVG/1.1/DTD/svg11.dtd">
<svg version="1.1" id="Layer_1" xmlns="http://www.w3.org/2000/svg" xmlns:xlink="http://www.w3.org/1999/xlink" x="0px" y="0px"
	 width="11.736px" height="9.539px" viewBox="0 0 11.736 9.539" enable-background="new 0 0 11.736 9.539" xml:space="preserve">
<g>
	<path d="M11.409,0.175c-0.463,0.276-0.979,0.478-1.527,0.585C9.442,0.292,8.817,0,8.124,0c-1.33,0-2.407,1.077-2.407,2.406
		c0,0.189,0.021,0.373,0.062,0.551C3.778,2.855,2.004,1.897,0.816,0.44C0.608,0.796,0.49,1.211,0.49,1.653
		c0,0.836,0.426,1.57,1.071,2.003c-0.394-0.012-0.767-0.121-1.09-0.3c0,0.01,0,0.021,0,0.028c0,1.167,0.83,2.141,1.933,2.36
		C2.201,5.8,1.988,5.832,1.769,5.832c-0.154,0-0.307-0.018-0.453-0.045C1.623,6.744,2.512,7.44,3.565,7.459
		C2.74,8.105,1.705,8.49,0.574,8.49C0.381,8.49,0.188,8.479,0,8.457c1.066,0.684,2.334,1.082,3.691,1.082
		c4.431,0,6.851-3.669,6.851-6.852c0-0.104-0.002-0.209-0.006-0.312c0.469-0.34,0.877-0.765,1.201-1.247
		c-0.432,0.19-0.895,0.321-1.383,0.379C10.851,1.21,11.229,0.739,11.409,0.175z"/>
</g>
</svg>
