<?xml version="1.0" encoding="utf-8"?>
<!-- Generator: Adobe Illustrator 16.0.0, SVG Export Plug-In . SVG Version: 6.00 Build 0)  -->
<!DOCTYPE svg PUBLIC "-//W3C//DTD SVG 1.1//EN" "http://www.w3.org/Graphics/SVG/1.1/DTD/svg11.dtd">
<svg version="1.1" id="Layer_1" xmlns="http://www.w3.org/2000/svg" xmlns:xlink="http://www.w3.org/1999/xlink" x="0px" y="0px"
	 width="14px" height="21.596px" viewBox="0 0 14 21.596" enable-background="new 0 0 14 21.596" xml:space="preserve">
<g>
	<rect y="17.749" fill="#231F20" width="14" height="2"/>
</g>
<g>
	<path fill="#231F20" d="M13,18.749h-2v-8.317C11,7.923,9.316,6.1,7,6.1c-2.318,0-4,1.847-4,4.391v8.258H1V10.49
		c0-3.643,2.58-6.391,6-6.391c3.421,0,6,2.722,6,6.332V18.749z"/>
</g>
<g>
	<path fill="#231F20" d="M10,4.749H8V2.884c0-0.446-0.486-0.868-1-0.868c-0.514,0-1,0.432-1,0.89V4.75H4V2.904
		c0-1.565,1.374-2.89,3-2.89s3,1.313,3,2.868V4.749z"/>
</g>
<path fill="#231F20" d="M8.5,20.165c0,0.783-0.634,1.416-1.416,1.416c-0.783,0-1.417-0.633-1.417-1.416
	c0-0.781,0.634-1.416,1.417-1.416C7.866,18.749,8.5,19.384,8.5,20.165"/>
</svg>
