<?xml version="1.0" standalone="no"?>
<!DOCTYPE svg PUBLIC "-//W3C//DTD SVG 1.1//EN" "http://www.w3.org/Graphics/SVG/1.1/DTD/svg11.dtd">
<svg xmlns="http://www.w3.org/2000/svg">
<metadata>Generated by Fontastic.me</metadata>
<defs>
<font id="arttap" horiz-adv-x="512">
<font-face font-family="arttap" units-per-em="512" ascent="480" descent="-32"/>
<missing-glyph horiz-adv-x="512" />

<glyph glyph-name="4-squares" unicode="&#97;" d="M0 512l230 0 0-230-230 0z m282 0l230 0 0-230-230 0z m-282-282l230 0 0-230-230 0z m282 0l230 0 0-230-230 0z"/>
<glyph glyph-name="account" unicode="&#98;" d="M81 27l-14 1 0-15 14 0z m350 0l0-14 15 0-1 15z m-11 164l14 1-1 1 0 1z m-273 52l0 13 0 0 0 0z m-66-230l350 0 0 27-350 0z m364 15l-11 164-27-2 11-164z m-25 163c13 3 13 3 13 3 0 0 0 0 0 0 0 0 0 0 0 0 0 0 0 0 0 0 0 0 0 0 0 0 0 1 0 1 0 1 0 0 0 1-1 2 0 2-1 4-2 7-2 5-5 13-10 20-10 15-27 32-55 31l1-26c14 0 24-9 31-20 4-5 6-10 8-15 1-2 1-3 2-5 0 0 0-1 0-1 0 0 0 0 0 0 0 0 0 0 0 0 0 0 0 0 0 0 0 0 0 0 0 0 0 0 0 0 0 0 0 0 0 0 13 3z m-55 64c-21 0-75 0-125 1-24 0-48 0-65 0-8 0-15 0-20 0-3 0-5 0-6 0 0 0-1 0-1 0 0 0-1 0-1 0 0 0 0 0 0 0 0 0 0 0 0 0 0 0 0 0 0 0 0 0 0 0 0-13 0-14 0-14 0-14 0 0 0 0 0 0 0 0 0 0 0 0 0 0 0 0 0 0 0 0 0 0 1 0 0 0 0 0 1 0 1 0 3 0 6 0 5 0 12 0 20 0 17 0 41 0 65 0 50-1 104-1 126 0z m-218-12c0 13 0 13 0 13 0 0 0 0 0 0 0 0 0 0 0 0 0 0 0 0 0 0 0 0-1 0-1 0 0 0 0 0 0 0-1 0-1 0-2 0-2 0-4-1-6-1-5-1-12-3-19-6-14-6-31-20-36-45l26-5c3 14 12 22 21 26 5 2 9 3 13 3 1 1 3 1 4 1 0 0 0 0 0 0 1 0 1 0 1 0 0 0 0 0 0 0 0 0 0 0 0 0 0 0 0 0 0 0 0 0 0 0 0 0 0 0-1 0-1 14z m-64-39c-5-21-8-66-11-104-2-19-3-37-3-51-1-6-1-12-1-15 0-2 0-4-1-5 0 0 0-1 0-1 0 0 0 0 0 0 0 0 0 0 0 0 0 0 0 0 0 0 0 0 0 0 0 0 0 0 0 0 14-1 13-1 13-1 13-1 0 0 0 0 0 0 0 0 0 0 0 0 0 0 0 0 0 0 0 0 0 1 0 1 0 0 0 0 0 1 0 1 1 2 1 4 0 4 0 9 0 16 1 13 2 31 4 50 2 39 6 82 10 101z m173 79c60 0 108 48 108 108l-27 0c0-45-36-81-81-81z m108 108c0 59-48 108-108 108l0-27c45 0 81-37 81-81z m-108 108c-60 0-108-49-108-108l27 0c0 44 36 81 81 81z m-108-108c0-60 48-108 108-108l0 27c-45 0-81 36-81 81z"/>
<glyph glyph-name="add" unicode="&#99;" d="M256-1c-141 0-256 115-256 257 0 141 115 256 256 256 142 0 257-115 257-256 0-142-115-257-257-257z m0 486c-126 0-228-103-228-229-1-126 102-229 228-229 126 0 229 103 229 229 0 126-103 229-229 229z m-13-95l27 0 0-268-27 0z m-121-121l268 0 0-27-268 0z"/>
<glyph glyph-name="arrows-back-l" unicode="&#100;" d="M43 264l160 160 0 43-203-203 203-203 0 42z m454 14l-467 0 0-30 467 0 0 30z"/>
<glyph glyph-name="arrows-down" unicode="&#101;" d="M249 118l-249 249 21 21 238-239 238 239 21-21-249-249z"/>
<glyph glyph-name="arrows-left" unicode="&#102;" d="M124 263l249 249 21-21-239-238 239-238-21-21-249 249z"/>
<glyph glyph-name="arrows-minus" unicode="&#103;" d="M0 270l512 0 0-28-512 0z"/>
<glyph glyph-name="arrows-plus" unicode="&#104;" d="M242 242l28 0 0-242-28 0z m0 270l28 0 0-242-28 0z m270-242l-512 0 0-28 512 0z"/>
<glyph glyph-name="arrows-question" unicode="&#105;" d="M256 0c-68 0-133 27-181 75-48 48-75 113-75 181 0 68 27 133 75 181 48 48 113 75 181 75 68 0 133-27 181-75 48-48 75-113 75-181 0-68-27-133-75-181-48-48-113-75-181-75z m0 496c-64 0-124-25-170-70-45-46-70-106-70-170 0-64 25-124 70-170 46-45 106-70 170-70 64 0 124 25 170 70 45 46 70 106 70 170 0 64-25 124-70 170-46 45-106 70-170 70z m-24-328l16 0 0-32-16 0z m16 32l-16 0 0 8c0 52 35 70 36 71 13 6 44 27 44 49 0 29-22 48-56 48-50 0-56-17-56-32l-16 0c0 32 24 48 72 48 42 0 72-26 72-64 0-37-50-62-52-63-1-1-28-15-28-57z"/>
<glyph glyph-name="arrows-remove" unicode="&#106;" d="M503 28l-226 223 224 226-26 26-224-226-225 224-26-26 226-224-224-225 26-26 224 226 225-224z"/>
<glyph glyph-name="arrows-right" unicode="&#107;" d="M394 243l-249-249-21 21 239 238-239 238 21 21 249-249z"/>
<glyph glyph-name="arrows-up" unicode="&#108;" d="M497 118l-238 239-238-239-21 21 249 249 20 0 249-249z"/>
<glyph glyph-name="arrows-up-l" unicode="&#109;" d="M32 296l45 0 171 171 170-171 45 0-215 216z m231-303l0 496-32 0 0-496z"/>
<glyph glyph-name="artwork" unicode="&#110;" d="M391 367l-132 132-133-132-126 0 0-359 512 0 0 359z m-132 78l78-78-156 0z m176-360l-358 0 0 205 358 0z"/>
<glyph glyph-name="bars" unicode="&#111;" d="M0 432l512 0 0-32-512 0z m0-160l512 0 0-32-512 0z m0-160l512 0 0-32-512 0z"/>
<glyph glyph-name="bell" unicode="&#112;" d="M427 85l-25 0 0 178c0 60-29 109-73 135l0 44c0 38-33 70-73 70-40 0-73-32-73-70l0-44c-44-26-73-76-73-136l0-177-25 0 0-49 140 0c-1-3-1-6-1-10 0-19 15-35 34-35 19 0 35 16 35 35 0 4-1 7-2 10l136 0z m-195 357c0 11 11 21 24 21 13 0 24-10 24-21l0-26c-8 1-16 2-24 2-8 0-16-1-24-2z m122-357l-196 0 0 177c0 62 41 107 98 107 56 0 98-44 98-106z"/>
<glyph glyph-name="card" unicode="&#113;" d="M0 148c0-35 28-63 62-63l388 0c34 0 62 28 62 63l0 132-512 0z m73 59l73 0 0-73-73 0z m377 220l-388 0c-34 0-62-28-62-63l0-10 512 0 0 10c0 35-28 63-62 63z"/>
<glyph glyph-name="cart" unicode="&#114;" d="M89 487l14 4-3 11-11 0z m75-288l-14-4 3-11 11 0z m245 0l0-15 9 0 4 9z m95 215l13-6 8 20-21 0z m-502 59l87 0 0 29-87 0z m74 11l74-289 28 7-75 289z m88-300l245 0 0 29-245 0z m258 9l95 215-26 12-95-216z m82 235l-340 0 0-28 340 0z m-305-385c24 0 43 19 43 42l-29 0c0-8-6-14-14-14z m43 42c0 24-19 43-43 43l0-28c8 0 14-7 14-15z m-43 43c-23 0-43-19-43-43l29 0c0 8 6 15 14 15z m-43-43c0-23 20-42 43-42l0 28c-8 0-14 6-14 14z m242-42c24 0 43 19 43 42l-29 0c0-8-6-14-14-14z m43 42c0 24-19 43-43 43l0-28c8 0 14-7 14-15z m-43 43c-23 0-42-19-42-43l28 0c0 8 6 15 14 15z m-42-43c0-23 19-42 42-42l0 28c-8 0-14 6-14 14z"/>
<glyph glyph-name="check" unicode="&#115;" d="M163 142l-122 123-41-41 163-163 349 349-41 41z"/>
<glyph glyph-name="checkbox" unicode="&#116;" d="M405 405l0-298-298 0 0 298z m0 43l-298 0c-24 0-43-19-43-43l0-298c0-24 19-43 43-43l298 0c24 0 43 19 43 43l0 298c0 24-19 43-43 43z"/>
<glyph glyph-name="checkbox-on" unicode="&#117;" d="M405 405l0-298-298 0 0 298z m0 43l-298 0c-24 0-43-19-43-43l0-298c0-24 19-43 43-43l298 0c24 0 43 19 43 43l0 298c0 24-19 43-43 43z m-256-85l214 0 0-214-214 0z"/>
<glyph glyph-name="copypaste" unicode="&#118;" d="M361 422l0 90-361 0 0-361 90 0 0-151 422 0 0 422z m91-362l-301 0 0 91 210 0 0 210 91 0z"/>
<glyph glyph-name="crop" unicode="&#119;" d="M477 114l-362 0 0 398 26 0 0-373 336 0z m-89-116l-26 0 0 373-336 0 0 26 362 0z"/>
<glyph glyph-name="delete" unicode="&#120;" d="M331 405l0 54-136 0 0-54-131 0 0-21 55 0 0-323 286 0 0 323 55 0 0 21z m-115 32l94 0 0-32-94 0z m168-355l-243 0 0 302 243 0z m-192 238l21 0 0-184-21 0z m128 0l21 0 0-184-21 0z m-64 0l21 0 0-184-21 0z"/>
<glyph glyph-name="delete-light" unicode="&#121;" d="M64 386l396 0 0 11-396 0z m141 62l0 5-5 0 0-5z m115 0l6 0 0 5-6 0z m-109-55l0 55-11 0 0-55z m-6 50l115 0 0 10-115 0z m110 5l0-54 11 0 0 54z m-185-376l-5 0 0-6 5 0z m264 0l0-6 6 0 0 6z m-269 320l0-320 10 0 0 320z m5-326l264 0 0 11-264 0z m270 6l0 318-11 0 0-318z m-200 254l0-184 11 0 0 184z m57 0l0-184 10 0 0 184z m56 0l0-184 11 0 0 184z"/>
<glyph glyph-name="document" unicode="&#122;" d="M461 0l-410 0 0 512 410 0z m-359 51l308 0 0 410-308 0z m52 333l204 0 0-51-204 0z m0-102l204 0 0-52-204 0z m0-103l204 0 0-51-204 0z"/>
<glyph glyph-name="email" unicode="&#65;" d="M502 403l0 9-3 0-3 4-1 1c-1 0-3 1-3 1-1 1-2 2-4 2l-470 1-3 0-1-1c-2 0-3-1-4-2-1 0-2 0-4-1l-2-3c0 0 0 0-1 0l0 0c-1-3-1-5-1-5l-2-3 0-294c0-3 1-5 1-5l1-5 2-2 3-2c3-3 7-4 11-4l466 0c4 0 8 1 11 4l3 2c2 3 2 6 2 5l2 4 0 294z m-70-18l-181-140-34 27-2 1-145 112z m-397-18l141-110-141-109z m35-237l136 105 33-26c3-2 5-3 5-3 1 0 3-1 6-1l2 0c3 0 4 1 4 1 1 0 4 1 6 2l34 27 136-105z m396 18l-141 109 141 110z"/>
<glyph glyph-name="facebook" unicode="&#66;" d="M187 18l102 0c0 0 0 137 0 247l69 0 9 87-78 0 0 51c0 20 13 24 22 24 9 0 55 0 55 0l0 85-76 0c-84 0-103-63-103-103l0-57-49 0 0-87 49 0c0-112 0-247 0-247z"/>
<glyph glyph-name="heart" unicode="&#67;" d="M256 387c-19 45-72 78-128 78-72 0-128-50-128-117 0-93 108-164 256-301 148 137 256 208 256 301 0 67-56 117-128 117-56 0-109-33-128-78z"/>
<glyph glyph-name="heart-o" unicode="&#68;" d="M378 477c-49 0-97-26-122-65-25 39-73 65-122 65-75 0-134-55-134-129 0-51 28-95 72-142 44-47 106-100 176-168l8-8 8 8c70 68 132 121 176 168 44 47 72 91 72 142 0 74-59 129-134 129z m45-255c-42-45-99-94-167-159-68 65-125 114-167 159-43 46-66 84-66 126 0 60 48 106 111 106 49 0 95-31 111-71l11-27 11 27c16 40 62 71 111 71 63 0 111-46 111-106 0-42-23-80-66-126z"/>
<glyph glyph-name="instagram" unicode="&#69;" d="M517 415c0 54-43 97-97 97l-323 0c-54 0-97-43-97-97l0-323c0-54 43-97 97-97l323 0c54 0 97 43 97 97z m-50 47l0-100-100-1 0 101z m-288-151c18 25 48 41 80 41 31 0 61-16 79-41 12-17 19-37 19-58 0-54-44-98-98-98-55 0-99 44-99 98 0 21 7 41 19 58z m241-275l-323 0c-31 0-56 25-56 56l0 221 92 0-3-7c-7-17-10-35-10-53 0-76 62-139 139-139 76 0 139 63 139 139 0 18-4 36-11 53l-3 7 92 0 0-221c0-31-25-56-56-56z"/>
<glyph glyph-name="linkedin" unicode="&#70;" d="M0 442c0 17 6 30 17 41 12 10 27 16 45 16 7 0 14-1 20-3 10-2 18-7 24-13 12-11 18-25 18-42 0-16-6-29-17-39-12-11-27-17-46-17l0 0c-18 0-33 6-44 17-11 10-17 24-17 40z m6-429l0 328 110 0 0-328z m281 0l-110 0c1 99 1 176 1 230 0 55 0 87-1 98l110 0 0-47-1-1 1 0 0 1c23 36 56 55 99 55 38 0 68-13 91-38 23-25 35-62 35-110l0-188-110 0 0 175c0 50-18 74-55 74-14 0-26-3-35-11-10-8-17-17-21-28-3-7-4-15-4-27z"/>
<glyph glyph-name="mail" unicode="&#71;" d="M260 192l-247 247-13 0 0-378 518 0 0 378-11 0z m178 247l-356 0 178-178z"/>
<glyph glyph-name="pinterest" unicode="&#72;" d="M298 142c-32 0-62 18-72 37 0 0-17-68-21-81-13-46-50-92-53-96-2-2-6-2-7 2-1 6-10 64 1 111 6 24 38 161 38 161 0 0-10 18-10 46 0 44 26 76 57 76 27 0 40-20 40-44 0-27-18-67-26-104-8-31 15-57 46-57 56 0 93 72 93 156 0 65-43 113-122 113-89 0-145-67-145-141 0-25 8-43 20-57 5-7 6-9 4-17-1-5-5-18-6-23-2-8-8-10-15-8-41 17-60 62-60 113 0 83 70 183 210 183 112 0 186-81 186-168 0-116-64-202-158-202z"/>
<glyph glyph-name="scroll-left" unicode="&#73;" d="M256 0c-141 0-256 115-256 256 0 141 115 256 256 256 141 0 256-115 256-256 0-141-115-256-256-256z m0 501c-135 0-245-110-245-245 0-135 110-245 245-245 135 0 245 110 245 245 0 135-110 245-245 245z m24-334l-87 92 87 84 8-8-80-76 80-84z"/>
<glyph glyph-name="scroll-right" unicode="&#74;" d="M256 0c-141 0-256 115-256 256 0 141 115 256 256 256 141 0 256-115 256-256 0-141-115-256-256-256z m0 501c-135 0-245-110-245-245 0-135 110-245 245-245 135 0 245 110 245 245 0 135-110 245-245 245z m-24-334l-8 8 80 76-80 85 8 7 88-92z"/>
<glyph glyph-name="search" unicode="&#75;" d="M277 212l208-183 21 24-207 183z m-101-36c88 0 160 72 160 160l-32 0c0-71-57-128-128-128z m160 160c0 88-72 160-160 160l0-32c71 0 128-57 128-128z m-160 160c-88 0-160-72-160-160l32 0c0 71 57 128 128 128z m-160-160c0-88 72-160 160-160l0 32c-71 0-128 57-128 128z"/>
<glyph glyph-name="speech" unicode="&#76;" d="M261 485c-144 0-261-89-261-199 0-70 47-132 119-167l-9-36-14-61 53 34 53 35-1 1c20-4 40-6 60-6 145 0 262 90 262 200 0 110-117 199-262 199"/>
<glyph glyph-name="tag" unicode="&#77;" d="M81 410l-81-81 0-154 98-73 414 0 0 308z m26-195c-25 0-45 21-45 45 0 25 20 45 45 45 24 0 44-20 44-45 0-24-20-45-44-45z"/>
<glyph glyph-name="twitter" unicode="&#78;" d="M487 462c-20-12-42-21-65-25-19 20-46 32-75 32-57 0-103-46-103-102 0-8 1-16 3-24-86 5-161 45-212 108-9-16-14-33-14-52 0-36 18-67 46-86-17 1-33 6-47 13 0 0 0-1 0-1 0-50 36-91 83-101-9-2-18-4-28-4-6 0-13 1-19 2 13-40 51-70 96-71-35-27-79-44-128-44-8 0-16 1-24 1 45-29 100-46 157-46 190 0 293 157 293 293 0 4 0 9 0 13 20 15 37 33 51 53-19-8-38-13-59-16 21 13 37 33 45 57z"/>
<glyph glyph-name="two-arrows" unicode="&#79;" d="M116 260l-116-115 116-116 43 43-42 43 387 0 0 60-388 0 43 42z m272-6l116 116-116 115-43-43 42-42-387 0 0-61 387 0-42-42z"/>
<glyph glyph-name="upload" unicode="&#80;" d="M451 124l0-106-390 0 0 110-24 0 0-134 438 0 0 130z m-43 224l-164 164-165-164 35 0 118 117 0-349 24 0 0 349 118-117z"/>
</font>
</defs>
</svg>
