<?xml version="1.0" encoding="utf-8"?>
<!-- Generator: Adobe Illustrator 16.0.0, SVG Export Plug-In . SVG Version: 6.00 Build 0)  -->
<!DOCTYPE svg PUBLIC "-//W3C//DTD SVG 1.1//EN" "http://www.w3.org/Graphics/SVG/1.1/DTD/svg11.dtd">
<svg version="1.1" id="Layer_1" xmlns="http://www.w3.org/2000/svg" xmlns:xlink="http://www.w3.org/1999/xlink" x="0px" y="0px"
	 width="14.199px" height="13.854px" viewBox="0 0 14.199 13.854" enable-background="new 0 0 14.199 13.854" xml:space="preserve">
<path fill="#231F20" stroke="#000000" stroke-width="0.5" stroke-miterlimit="10" d="M8.723,6.928l4.513-3.5v7L8.723,6.928z
	 M5.862,7.228l1.091,0.843c0.024,0.021,0.055,0.021,0.082,0.029C7.05,8.107,7.062,8.116,7.082,8.116
	C7.089,8.118,7.094,8.122,7.1,8.122s0.01-0.004,0.017-0.004c0.019-0.002,0.03-0.012,0.047-0.016c0.027-0.008,0.059-0.01,0.084-0.031
	l1.09-0.843l4.441,3.447H1.419L5.862,7.228z M8.192,6.739c-0.001,0.001-0.003,0-0.003,0.001l-1.031,0.8L7.099,7.587L7.05,7.55
	L6.009,6.74c-0.004-0.001-0.004,0-0.006-0.001L1.417,3.18h11.359L8.192,6.739z M0.96,3.429l4.515,3.5l-4.515,3.5V3.429z
	 M13.71,2.944c0-0.026-0.021-0.045-0.03-0.071C13.671,2.849,13.677,2.822,13.66,2.8c-0.004-0.005-0.012-0.004-0.015-0.01
	c-0.021-0.022-0.048-0.027-0.076-0.042c-0.028-0.013-0.051-0.033-0.081-0.035c-0.007,0-0.01-0.006-0.016-0.006H0.724
	c-0.006,0-0.01,0.006-0.014,0.006C0.678,2.715,0.654,2.734,0.626,2.748C0.6,2.762,0.572,2.767,0.55,2.79
	C0.548,2.796,0.542,2.793,0.537,2.8C0.52,2.821,0.524,2.848,0.516,2.873C0.505,2.899,0.488,2.918,0.488,2.944v7.967
	c0,0.027,0.02,0.045,0.028,0.07c0.008,0.025,0.004,0.053,0.021,0.074c0.006,0.006,0.01,0.004,0.014,0.008
	c0.044,0.049,0.103,0.084,0.174,0.084h12.748c0.072,0,0.131-0.035,0.175-0.084c0.004-0.004,0.009-0.002,0.013-0.008
	c0.018-0.021,0.012-0.049,0.021-0.074c0.011-0.025,0.03-0.043,0.03-0.07V2.944L13.71,2.944z"/>
</svg>
